<?xml version="1.0" encoding="UTF-8"?>
<svg width="512" height="256" version="1.1" viewBox="0 0 135.47 67.733" xmlns="http://www.w3.org/2000/svg" xmlns:cc="http://creativecommons.org/ns#" xmlns:dc="http://purl.org/dc/elements/1.1/" xmlns:rdf="http://www.w3.org/1999/02/22-rdf-syntax-ns#">
 <metadata>
  <rdf:RDF>
   <cc:Work rdf:about="">
    <dc:format>image/svg+xml</dc:format>
    <dc:type rdf:resource="http://purl.org/dc/dcmitype/StillImage"/>
    <dc:title/>
   </cc:Work>
  </rdf:RDF>
 </metadata>
 <g display="none">
  <path d="m8.0009 1.0023s1.9582 3.6366 6.3641 3.9164c0 0-0.27974 8.5321-6.504 11.05 0 0-4.966-1.9563-5.455-11.26 0 0 3.4968 0.62942 5.5948-3.7066z" fill="#dc0000" stroke="#600" stroke-width=".52917"/>
  <g fill="#600" fill-rule="evenodd">
   <ellipse cx="6.0136" cy="8.0849" rx=".86863" ry="1.7373"/>
   <ellipse cx="9.5215" cy="8.0181" rx=".90203" ry="1.8041"/>
  </g>
  <g fill="#dc0000" stroke="#600" stroke-width=".52917">
   <path d="m14.604 2.7355s-1.995-0.50099-2.4554 1.1451c-0.46039 1.6461 2.7624 4.8667 2.7624 7.4432 0 0 3.8366-5.4393-0.30693-8.5883z"/>
   <path d="m2.2103 3.065s1.8195-0.46772 2.2394 1.0691-2.5193 4.5436-2.5193 6.949c0 0-3.499-5.0781 0.27992-8.0181z"/>
  </g>
  <g transform="translate(-1.4058 8.0765)" stroke="#600" stroke-width=".52917">
   <path d="m5.2093 12.393h6.5147" fill="none"/>
   <path d="m8.4572 0.51972-2.0789 2.2679 1.2048 9.5911h1.7009l1.2757-9.5675z" fill="#dc0000"/>
   <path d="m8.4667 16.663v-14.899" fill="none"/>
  </g>
 </g>
 <g>
  <path d="m3.1234 60.851 5.1619-0.31444s0.27889-19.697 10.958-23.921c-14.845 3.1265-16.12 24.235-16.12 24.235z" fill="#ff9696" stroke="#dc0000" stroke-width=".52917"/>
  <path d="m25.247 44.378s3.6028-0.8711 4.4342 1.9911c0.83141 2.8622-4.9885 8.4621-4.9885 12.942 0 0-6.9284-9.4576 0.55427-14.933z" fill="#dc0000" stroke="#600" stroke-width=".52917"/>
  <g transform="matrix(.057928 -1.5775 1.5106 -.057928 1.8484 74.222)" stroke="#600" stroke-width=".34304">
   <path d="m5.2093 12.393h6.5147" fill="none"/>
   <path d="m8.4572 0.51972-2.0789 2.2679 1.2048 9.5911h1.7009l1.2757-9.5675z" fill="#dc0000"/>
   <path d="m8.4667 16.663v-14.899" fill="none"/>
  </g>
  <g>
   <path d="m40.443 38.119s-5.711 0.63424-5.4057 5.2042c0.3053 4.5699 11.753 9.6001 14.127 16.07 0 0 5.0833-17.297-8.7208-21.274z" fill="#dc0000" stroke="#600" stroke-width=".52917"/>
   <circle cx="36.739" cy="54.007" r="10.231" fill="#dc0000" stop-color="#000000" stroke="#600" stroke-width=".70556"/>
   <ellipse cx="31.499" cy="54.447" rx="1.6704" ry="3.3409" fill="#600" fill-rule="evenodd"/>
   <ellipse cx="38.581" cy="54.513" rx="1.6704" ry="3.3409" fill="#600" fill-rule="evenodd"/>
   <path d="m26.487 51.841s2.4751-2.2136 4.8777-3.4745c2.4026-1.261 7.1144-1.0225 9.889 0.86863 2.7746 1.8911 4.6772 9.4881 4.6772 9.4881s3.3667-6.6799 2.4722-8.4858c-0.77892-1.5726-4.8108-7.5504-11.626-7.4835-3.9422 0-7.4877 1.7543-8.4357 3.8754-0.83878 1.8768-1.8542 5.2118-1.8542 5.2118z" fill="#dc0000" stroke="#600" stroke-width=".52917"/>
  </g>
  <g fill="none" stroke="#600" stroke-width=".52917">
   <path d="m35.575 43.756-1.0691 2.8731"/>
   <path d="m40.72 44.825-1.2695 2.4054"/>
   <path d="m42.791 46.161-1.0691 2.0045"/>
   <path d="m32.635 44.758-0.93544 2.205"/>
   <path d="m30.162 46.161-0.73499 2.0713"/>
   <path d="m38.448 43.756-1.0691 2.8731"/>
  </g>
  <path d="m48.457 46.45s-3.6028-0.8711-4.4342 1.9911c-0.83141 2.8622 4.9885 8.4621 4.9885 12.942 0 0 6.9284-9.4576-0.55427-14.933z" fill="#dc0000" stroke="#600" stroke-width=".52917"/>
  <path d="m43.547 52.056s1.9582 3.6366 6.3641 3.9164c0 0-0.27974 8.5321-6.504 11.05 0 0-4.966-1.9563-5.455-11.26 0 0 3.4968 0.62942 5.5948-3.7066z" fill="#dc0000" stroke="#600" stroke-width=".52917"/>
  <g transform="translate(18.87)">
   <path d="m6.3772 10.511s3.6028-0.8711 4.4342 1.9911c0.83141 2.8622-4.9885 8.4621-4.9885 12.942 0 0-6.9284-9.4576 0.55427-14.933z" fill="#dc0000" stroke="#600" stroke-width=".52917"/>
   <g transform="matrix(1.3951 -.73857 .80546 1.2792 -14.181 17.33)" stroke="#600" stroke-width=".34304">
    <path d="m5.2093 12.393h6.5147" fill="none"/>
    <path d="m8.4572 0.51972-2.0789 2.2679 1.2048 9.5911h1.7009l1.2757-9.5675z" fill="#dc0000"/>
    <path d="m8.4667 16.663v-14.899" fill="none"/>
   </g>
   <g>
    <path d="m21.573 4.2522s-5.711 0.63424-5.4057 5.2042c0.3053 4.5699 11.753 9.6001 14.127 16.07 0 0 5.0833-17.297-8.7208-21.274z" fill="#dc0000" stroke="#600" stroke-width=".52917"/>
    <circle cx="17.869" cy="20.141" r="10.231" fill="#dc0000" stop-color="#000000" stroke="#600" stroke-width=".70556"/>
    <ellipse cx="12.628" cy="20.58" rx="1.6704" ry="3.3409" fill="#600" fill-rule="evenodd"/>
    <ellipse cx="19.711" cy="20.647" rx="1.6704" ry="3.3409" fill="#600" fill-rule="evenodd"/>
    <path d="m7.6172 17.974s2.4751-2.2136 4.8777-3.4745c2.4026-1.261 7.1144-1.0225 9.889 0.86863 2.7746 1.8911 4.6772 9.4881 4.6772 9.4881s3.3667-6.6799 2.4722-8.4858c-0.77892-1.5726-4.8108-7.5504-11.626-7.4835-3.9422 0-7.4877 1.7543-8.4357 3.8754-0.83878 1.8768-1.8542 5.2118-1.8542 5.2118z" fill="#dc0000" stroke="#600" stroke-width=".52917"/>
   </g>
   <g fill="none" stroke="#600" stroke-width=".52917">
    <path d="m16.704 9.889-1.0691 2.8731"/>
    <path d="m21.849 10.958-1.2695 2.4054"/>
    <path d="m23.921 12.294-1.0691 2.0045"/>
    <path d="m13.764 10.891-0.93544 2.205"/>
    <path d="m11.292 12.294-0.73499 2.0713"/>
    <path d="m19.577 9.889-1.0691 2.8731"/>
   </g>
   <path d="m29.587 12.583s-3.6028-0.8711-4.4342 1.9911c-0.83141 2.8622 4.9885 8.4621 4.9885 12.942 0 0 6.9284-9.4576-0.55427-14.933z" fill="#dc0000" stroke="#600" stroke-width=".52917"/>
   <path d="m24.676 18.189s1.9582 3.6366 6.3641 3.9164c0 0-0.27974 8.5321-6.504 11.05 0 0-4.966-1.9563-5.455-11.26 0 0 3.4968 0.62942 5.5948-3.7066z" fill="#dc0000" stroke="#600" stroke-width=".52917"/>
  </g>
  <path d="m92.981 10.511s3.6028-0.8711 4.4342 1.9911c0.83141 2.8622-4.9885 8.4621-4.9885 12.942 0 0-6.9284-9.4576 0.55427-14.933z" fill="#dc0000" stroke="#600" stroke-width=".52917"/>
  <g transform="matrix(1.5775 .057928 .057928 1.5106 80.061 2.0778)" stroke="#600" stroke-width=".34304">
   <path d="m5.2093 12.393h6.5147" fill="none"/>
   <path d="m8.4572 0.51972-2.0789 2.2679 1.2048 9.5911h1.7009l1.2757-9.5675z" fill="#dc0000"/>
   <path d="m8.4667 16.663v-14.899" fill="none"/>
  </g>
  <g>
   <path d="m108.18 4.2522s-5.711 0.63424-5.4057 5.2042c0.3053 4.5699 11.753 9.6001 14.127 16.07 0 0 5.0833-17.297-8.7208-21.274z" fill="#dc0000" stroke="#600" stroke-width=".52917"/>
   <circle cx="104.47" cy="20.141" r="10.231" fill="#dc0000" stop-color="#000000" stroke="#600" stroke-width=".70556"/>
   <ellipse cx="99.232" cy="20.58" rx="1.6704" ry="3.3409" fill="#600" fill-rule="evenodd"/>
   <ellipse cx="106.31" cy="20.647" rx="1.6704" ry="3.3409" fill="#600" fill-rule="evenodd"/>
   <path d="m94.221 17.974s2.4751-2.2136 4.8777-3.4745c2.4026-1.261 7.1144-1.0225 9.889 0.86863 2.7746 1.8911 4.6772 9.4881 4.6772 9.4881s3.3668-6.6799 2.4722-8.4858c-0.77892-1.5726-4.8108-7.5504-11.626-7.4835-3.9422 0-7.4877 1.7543-8.4357 3.8754-0.83878 1.8768-1.8542 5.2118-1.8542 5.2118z" fill="#dc0000" stroke="#600" stroke-width=".52917"/>
  </g>
  <g fill="none" stroke="#600" stroke-width=".52917">
   <path d="m103.31 9.889-1.0691 2.8731"/>
   <path d="m108.45 10.958-1.2695 2.4054"/>
   <path d="m110.52 12.294-1.0691 2.0045"/>
   <path d="m100.37 10.891-0.93545 2.205"/>
   <path d="m97.896 12.294-0.73499 2.0713"/>
   <path d="m106.18 9.889-1.0691 2.8731"/>
  </g>
  <g fill="#dc0000" stroke="#600" stroke-width=".52917">
   <path d="m116.19 12.583s-3.6028-0.8711-4.4342 1.9911c-0.83141 2.8622 4.9885 8.4621 4.9885 12.942 0 0 6.9284-9.4576-0.55427-14.933z"/>
   <path d="m111.28 18.189s1.9582 3.6366 6.3641 3.9164c0 0-0.27975 8.5321-6.504 11.05 0 0-4.966-1.9563-5.455-11.26 0 0 3.4968 0.62942 5.5948-3.7066z"/>
   <path d="m126.43 40.153s0.8711 3.6028-1.9911 4.4342c-2.8622 0.83141-8.4621-4.9885-12.942-4.9885 0 0 9.4576-6.9284 14.933 0.55427z"/>
  </g>
  <g transform="matrix(.057928 -1.5775 1.5106 -.057928 75.996 75.158)" stroke="#600" stroke-width=".34304">
   <path d="m5.2093 12.393h6.5147" fill="none"/>
   <path d="m8.4572 0.51972-2.0789 2.2679 1.2048 9.5911h1.7009l1.2757-9.5675z" fill="#dc0000"/>
   <path d="m8.4667 16.663v-14.899" fill="none"/>
  </g>
  <g fill="#dc0000" stroke="#600">
   <path d="m132.68 55.348s-0.63424-5.711-5.2042-5.4057c-4.5699 0.3053-9.6001 11.753-16.07 14.127 0 0 17.297 5.0833 21.274-8.7208z" stroke-width=".52917"/>
   <circle transform="rotate(90)" cx="51.644" cy="-116.8" r="10.231" stop-color="#000000" stroke-width=".70556"/>
   <path d="m118.96 41.393s2.2136 2.4751 3.4745 4.8777c1.261 2.4026 1.0225 7.1144-0.86863 9.889-1.8911 2.7746-9.4881 4.6772-9.4881 4.6772s6.6799 3.3668 8.4858 2.4722c1.5726-0.77892 7.5504-4.8108 7.4835-11.626 0-3.9422-1.7543-7.4877-3.8754-8.4357-1.8768-0.83878-5.2118-1.8542-5.2118-1.8542z" stroke-width=".52917"/>
  </g>
  <g fill="none" stroke="#600" stroke-width=".52917">
   <path d="m127.05 50.48-2.8731-1.0691"/>
   <path d="m125.98 55.625-2.4054-1.2695"/>
   <path d="m124.64 57.696-2.0045-1.0691"/>
   <path d="m126.05 47.54-2.205-0.93545"/>
   <path d="m124.64 45.067-2.0713-0.73499"/>
   <path d="m127.05 53.353-2.8731-1.0691"/>
  </g>
  <g stroke="#600" stroke-width=".52917">
   <path d="m124.35 63.362s0.8711-3.6028-1.9911-4.4342c-2.8622-0.83141-8.4621 4.9885-12.942 4.9885 0 0 9.4576 6.9284 14.933-0.55427z" fill="#dc0000"/>
   <path d="m114.79 46.639c0.14399 0.24939-0.26514 0.31713-0.41451 0.23932-0.40478-0.21088-0.32625-0.78069-0.0641-1.0683 0.46889-0.51452 1.2896-0.3696 1.7222 0.11107 0.63471 0.70539 0.41622 1.8062-0.28626 2.376-0.93629 0.75936-2.3256 0.46436-3.0298-0.46145-0.88611-1.165-0.51332-2.8464 0.63663-3.6836 1.3928-1.014 3.3679-0.56274 4.3374 0.81183 1.1426 1.6199 0.61246 3.8899-0.98703 4.9913" fill="none"/>
   <path d="m114.93 54.389c0.14399 0.24939-0.26513 0.31713-0.4145 0.23932-0.40478-0.21088-0.32626-0.78069-0.0641-1.0683 0.46889-0.51452 1.2897-0.3696 1.7222 0.11107 0.63471 0.70539 0.41622 1.8062-0.28625 2.376-0.93629 0.75936-2.3256 0.46436-3.0298-0.46145-0.88611-1.165-0.51331-2.8464 0.63664-3.6836 1.3927-1.014 3.3679-0.56274 4.3374 0.81183 1.1426 1.6199 0.61246 3.8899-0.98702 4.9913" fill="none"/>
   <path d="m118.35 60.069s-3.6366 1.9582-3.9164 6.3641c0 0-8.5321-0.27975-11.05-6.504 0 0 1.9563-4.966 11.26-5.455 0 0-0.62941 3.4968 3.7066 5.5948z" fill="#dc0000"/>
  </g>
 </g>
</svg>
