<?xml version="1.0" encoding="UTF-8"?>
<svg width="512" height="256" version="1.1" viewBox="0 0 135.47 67.733" xmlns="http://www.w3.org/2000/svg" xmlns:cc="http://creativecommons.org/ns#" xmlns:dc="http://purl.org/dc/elements/1.1/" xmlns:rdf="http://www.w3.org/1999/02/22-rdf-syntax-ns#">
 <metadata>
  <rdf:RDF>
   <cc:Work rdf:about="">
    <dc:format>image/svg+xml</dc:format>
    <dc:type rdf:resource="http://purl.org/dc/dcmitype/StillImage"/>
    <dc:title/>
   </cc:Work>
  </rdf:RDF>
 </metadata>
 <g>
  <path d="m38.22 7.2657 17.373-5.4118-14.422 13.648z" fill="#dc8400" stroke="#6b4000" stroke-width=".52917"/>
  <path d="m4.6548 2.6791 13.484 10.725-2.8837 7.2378 6.9373 5.1246 15.338 1.1431 13.411 5.1137-8.2476-11.036 3.1164-6.6075-9.1187-8.7356-12.799-0.063549-3.6172 2.0131z" fill="#dc8400" stroke="#6b4000" stroke-width=".52917"/>
  <path d="m23.356 12.203 5.2432 4.4892-7.3943-0.95226z" fill="#6b4000"/>
  <path d="m37.876 12.412 3.2938 3.1289-7.5287 0.81622z" fill="#6b4000"/>
  <path d="m25.104 2.2551-4.6199 2.5084-3.0544 10.784-8.71 15.086 3.1202 1.8014 8.71-15.086 7.5956-8.1619 0.07866-5.1303z" fill="#dc8400" stroke="#6b4000" stroke-width=".52917"/>
 </g>
 <g>
  <g>
   <path d="m38.22 41.132 17.373-5.4118-14.422 13.648z" fill="#dc8400" stroke="#6b4000" stroke-width=".52917"/>
   <path d="m67.019 60.424-9.2865-0.31444s-0.50174-19.697-19.714-23.921c26.707 3.1265 29.001 24.235 29.001 24.235z" fill="#ffd28c" stroke="#dc8400" stroke-width=".52917"/>
   <path d="m4.6548 36.546 13.484 10.725-2.8837 7.2378 6.9373 5.1246 15.338 1.1431 13.411 5.1137-8.2476-11.036 3.1164-6.6075-9.1187-8.7356-12.799-0.06355-3.6172 2.0131z" fill="#dc8400" stroke="#6b4000" stroke-width=".52917"/>
  </g>
  <path d="m23.356 46.07 5.2432 4.4892-7.3943-0.95226z" fill="#6b4000"/>
  <path d="m37.876 46.279 3.2938 3.1289-7.5287 0.81622z" fill="#6b4000"/>
 </g>
 <g fill="#dc8400" stroke="#6b4000">
  <path d="m67.041 60.424-4.4823-2.7467-10.866 2.7468h-17.42v3.6029l17.42 2e-6 10.866 2.497 4.4823-2.497z" stroke-width=".52917"/>
  <path d="m105.95 7.2657 17.373-5.4118-14.422 13.648z" stroke-width=".52917"/>
  <path d="m72.388 2.6791 13.484 10.725-2.8837 7.2378 6.9373 5.1246 15.338 1.1431 13.411 5.1137-8.2476-11.036 3.1164-6.6075-9.1187-8.7356-12.799-0.063549-3.6172 2.0131z" stroke-width=".52917"/>
 </g>
 <path d="m91.09 12.203 5.2432 4.4892-7.3943-0.95226z" fill="#6b4000"/>
 <path d="m105.61 12.412 3.2938 3.1289-7.5287 0.81622z" fill="#6b4000"/>
 <g fill="#dc8400" stroke="#6b4000">
  <path d="m103.47 0.94097-2.7468 4.4823 2.7468 10.866v17.42h3.6029v-17.42l2.497-10.866-2.497-4.4823z" stroke-width=".52917"/>
  <path d="m105.95 51.76 17.373-3.0887-14.422 7.7893z" stroke-width=".52917"/>
  <path d="m72.388 49.142 13.484 6.1211-2.8837 4.1309 6.9373 2.9248 15.338 0.65242 13.411 2.9186-8.2476-6.2988 3.1164-3.7711-9.1187-4.9857-12.799-0.03627-3.6172 1.1489z" stroke-width=".52917"/>
  <path d="m102.59 61.183-4.4823-2.7467-10.866 2.7468h-17.42v3.6029l17.42 2e-6 10.866 2.497 4.4823-2.497z" stroke-width=".52917"/>
 </g>
 <g fill="none" stroke="#6b4000" stroke-width=".52917">
  <path d="m89.675 52.633 6.2366 5.2917"/>
  <path d="m96.156 52.952-6.7255 4.6545"/>
  <path d="m100.73 52.633 6.2366 5.2917"/>
  <path d="m107.21 52.952-6.7255 4.6545"/>
 </g>
</svg>
